<svg width="425" height="439" viewBox="0 0 425 439" fill="none" xmlns="http://www.w3.org/2000/svg">
<path fill-rule="evenodd" clip-rule="evenodd" d="M0 219.5V439H212.5H425V219.5V0H212.5H0V219.5ZM224.458 14.436C232.374 18.308 238.144 25.184 240.748 33.845C243.035 41.451 242.949 45.471 240.331 53.45C238.439 59.216 231.414 67.238 225.709 70.148C221.291 72.402 221.303 74.063 225.746 75.214C227.457 75.657 230.351 77.655 232.178 79.654C236.831 84.745 238.276 86.18 241.329 88.743C244.076 91.051 244.761 93.411 243 94.5C241.77 95.26 241.718 99.007 242.912 100.892C243.643 102.046 244.279 101.948 246.647 100.316C248.216 99.234 251.075 97.748 253 97.014C257.889 95.15 258.862 94.079 256.75 92.888C253.331 90.959 254.912 89.92 260.25 90.59C263.809 91.036 266.354 92.044 268.153 93.718L270.805 96.188L274.653 91.315C279.025 85.779 290.69 69.441 296.656 60.5C300.736 54.385 305.906 50 309.037 50C312.219 50 315.321 53.428 315.224 56.838C315.109 60.866 312.753 64.024 304.291 71.496C300.556 74.794 292.125 83.214 285.556 90.207C275.826 100.566 273.35 102.706 272.198 101.749C271.094 100.833 270.532 100.919 269.64 102.14C269.011 103 266.173 104.385 263.333 105.218C258.618 106.6 257.747 106.582 253.283 105.01C250.595 104.063 246.964 103.498 245.214 103.755C240.97 104.378 240.008 107.717 239.16 124.763C238.414 139.75 237.657 138.412 247.5 139.499C256.592 140.503 258 141.788 258 149.089C258 156.432 257.18 158.099 251.735 161.816C246.187 165.603 239.192 167.836 229.991 168.754C223.628 169.39 222.471 169.795 222.159 171.5C221.614 174.482 219.414 176.53 216.494 176.771C214.003 176.977 213.96 176.895 215.448 174.771C216.302 173.552 217 171.508 217 170.228C217 168.948 217.687 166.573 218.526 164.95L220.051 162H231.915C242.245 162 244.084 161.746 246.139 160.033C248.12 158.383 248.218 158.061 246.75 158.033C245.299 158.006 245 157.059 245 152.5C245 147.793 245.27 147 246.871 147C248.371 147 248.879 148.031 249.431 152.193C249.81 155.048 250.374 157.796 250.685 158.299C251.817 160.131 252.97 156.363 252.985 150.785C253.005 143.316 251.895 142.711 238.994 143.16C230.058 143.47 229.274 143.352 230.097 141.816C231.403 139.38 231.306 139.226 228 138.5C226.35 138.138 225 137.479 225 137.037C225 135.566 229.958 135.244 231.116 136.64C231.737 137.388 232.812 138 233.506 138C235.157 138 236.313 133.624 234.798 133.108C234.165 132.892 231.676 130.899 229.267 128.679C225.523 125.227 225.128 124.508 226.54 123.718C227.79 123.018 229.019 123.595 231.596 126.093L235 129.392V125.171C235 121.72 234.59 120.791 232.75 120.076C231.512 119.595 229.178 117.806 227.563 116.101C224.832 113.218 224.773 113 226.724 113C227.878 113 229.958 114.35 231.347 116C232.735 117.65 234.125 119 234.435 119C234.746 119 235 117.189 235 114.975C235 111.275 234.638 110.732 230.5 108.233C226.022 105.528 224.596 103 227.548 103C228.399 103 230.138 104.125 231.412 105.5C234.319 108.636 234.635 108.62 236.341 105.25C240.622 96.793 238.72 91.309 231.153 90.294C226.524 89.673 224.993 87.842 226.75 85.028C228.424 82.349 226.577 80.658 221.32 80.054C218.669 79.749 216.613 79.162 216.75 78.75C216.887 78.338 217.001 75.638 217.002 72.75L217.005 67.5L222.46 64.649C233.732 58.76 238.642 46.549 234.839 33.858C231.208 21.737 216.882 14.567 203.86 18.352C193.289 21.425 186.066 30.421 186.022 40.568C185.974 51.583 191.101 60.46 200.187 65.095L204 67.041V73.407V79.773L199.5 80.448C195.062 81.113 194.664 81.55 194.896 85.5C195.07 88.453 193.988 89.409 189.026 90.688C182.586 92.349 181.048 90.557 185 86C187.583 83.022 187.523 82.389 184.464 80.384C182.409 79.038 180.303 78.824 173.369 79.257C168.661 79.55 164.39 80.21 163.877 80.723C163.3 81.3 163.691 83.326 164.904 86.034C165.982 88.442 166.643 90.769 166.373 91.206C166.103 91.643 163.428 92 160.429 92H154.976L155.62 87.974C156.489 82.539 154.244 79.995 148.595 80.014C140.606 80.04 139.831 80.624 140.14 86.384L140.415 91.5L134.457 92.525L128.5 93.55L128.204 99.155L127.907 104.76L131.429 105.421C133.366 105.784 136.537 106.744 138.475 107.554L142 109.027L142.009 117.763C142.013 122.569 142.291 128.774 142.625 131.553L143.232 136.606L139.123 138.22C134.442 140.058 133 142.736 133 149.587C133 153.488 133.342 154.193 135.75 155.251C139.723 156.997 139.968 157.653 139.985 166.597C139.997 173.244 140.358 175.107 142 177C143.767 179.037 144 180.741 144 191.608V203.909L147.493 204.565C149.415 204.925 152.002 204.965 153.243 204.654C155.46 204.098 155.494 203.864 155.148 191.558L154.795 179.028L157.3 178.076C160.977 176.678 161.449 175.415 162 165.51C162.43 157.782 162.76 156.47 164.35 156.167C168.07 155.459 172.994 157.153 177.041 160.534L181.187 163.998L190.859 163.364C202.086 162.628 202.918 163.097 203.768 170.631C204.258 174.982 204.364 175.123 205.523 172.958L206.755 170.654L207.445 172.827C207.83 174.039 208.963 175 210.008 175C211.039 175 212.128 175.399 212.43 175.886C213.143 177.04 209.57 177.969 204.357 177.986C199.816 178.001 199 177.039 199 171.668L199.001 168.5H188.675C179.845 168.5 177.601 168.15 173.178 166.08C170.333 164.75 167.706 163.96 167.34 164.327C166.974 164.693 166.394 168.417 166.052 172.602C165.498 179.373 165.13 180.43 162.715 182.189C160.507 183.798 160.003 184.945 160.014 188.333C160.021 190.625 160.285 193.459 160.599 194.632L161.171 196.763L167.336 194.891C170.726 193.862 182.95 190.502 194.5 187.425C206.05 184.348 218.875 180.783 223 179.502C227.125 178.221 236.37 175.792 243.544 174.105C250.718 172.417 261.293 169.723 267.044 168.118C272.795 166.513 283.8 163.532 291.5 161.493C299.2 159.453 310.9 156.214 317.5 154.293C356.241 143.018 394.708 133.026 399.421 133.012C404.57 132.996 407 135.252 407 140.048C407 144.6 405.082 145.639 401.656 142.944C400.297 141.875 398.131 141.011 396.842 141.024C393.363 141.059 380.296 144.19 364.5 148.773C356.8 151.007 345.325 154.26 339 156C332.675 157.741 323.225 160.434 318 161.985C312.775 163.536 303.1 166.211 296.5 167.931C289.9 169.65 280.225 172.172 275 173.534C269.775 174.897 259.425 177.375 252 179.04C236.787 182.453 210.013 189.694 196.5 194.052C191.55 195.648 183.9 197.826 179.5 198.891C175.1 199.957 166.818 202.242 161.097 203.97C155.375 205.697 148.4 207.539 145.597 208.063C142.793 208.587 134.65 210.562 127.5 212.453C98.833 220.032 81.505 223.944 56.5 228.485C32.848 232.78 24.415 232.617 19.25 227.766C16.282 224.977 16.163 218.334 19.016 214.706C24.475 207.767 33.223 205.344 56.387 204.354C69.833 203.78 72.204 203.893 71.814 205.088C70.933 207.783 66.198 208.985 52.656 209.953C42.639 210.669 37.735 211.489 34.093 213.055C25.565 216.724 23.814 220.768 29.724 223.148C31.847 224.002 35.794 223.867 46.5 222.573C62.307 220.663 69.506 219.2 103.5 210.991C116.7 207.803 130.036 204.641 133.135 203.964L138.771 202.733L138.259 192.117C137.896 184.579 137.302 180.989 136.21 179.74C135.364 178.772 134.099 174.106 133.399 169.372C132.504 163.316 131.514 160.112 130.063 158.567C128.45 156.85 128.005 155.077 128.024 150.436C128.061 141.154 129.411 136.904 133.437 133.394C137.186 130.126 137.606 128.302 136.355 120.734C135.864 117.761 135.052 116.644 132.502 115.434C124.54 111.656 120.446 104.128 121.473 95.158L122.121 89.5L114.81 82.374C110.79 78.455 105.109 73.217 102.186 70.733C92.188 62.234 89.639 56.277 94.189 52.039C97.828 48.648 102.666 49.319 106.905 53.801C108.882 55.892 111.175 58.925 112 60.54C112.825 62.156 115.817 67.432 118.648 72.265C121.48 77.098 124.057 82.09 124.375 83.357C124.854 85.267 125.469 85.585 127.976 85.217C130.093 84.906 131 84.217 131 82.921C131 81.903 132.397 79.479 134.104 77.535C137.161 74.052 137.323 74 145.057 74C149.374 74 154.065 74.528 155.482 75.174C157.556 76.119 159.118 76.013 163.508 74.629C172.265 71.868 178.083 71.535 183.879 73.46C186.706 74.399 189.471 76.012 190.023 77.044C190.986 78.843 191.178 78.819 194.654 76.46C196.648 75.107 198.666 74 199.14 74C199.613 74 200 73.373 200 72.606C200 71.839 197.868 70.152 195.263 68.856C189.702 66.091 182.591 57.791 181.061 52.281C179.375 46.208 179.787 36.645 181.988 30.762C184.007 25.364 190.915 17.565 196 14.941C205.042 10.275 215.572 10.088 224.458 14.436ZM221.61 25.25C228.541 29.907 231 34.009 231 40.913C231 51.285 223.615 60.743 214.868 61.574L210.5 61.988L215.006 60.66C217.484 59.93 220.521 58.791 221.756 58.131C224.813 56.495 224.685 54.789 221.593 55.965C220.27 56.468 216.445 57.19 213.093 57.569C207.064 58.251 204.862 60.191 208.75 61.395C209.713 61.693 208.749 61.744 206.61 61.509C195.512 60.286 187.033 46.001 191.061 35.315C193.824 27.989 203.002 22.059 211.637 22.022C215.795 22.004 217.695 22.619 221.61 25.25ZM202.5 27.995C196.377 31.047 193.537 35.969 193.517 43.569C193.503 48.816 193.889 50.249 195.897 52.388C199.514 56.242 203.357 57.103 212.384 56.082C221.188 55.087 224.412 53.324 227.399 47.872C230.68 41.884 227.452 33.243 220.078 28.274C215.71 25.33 208.09 25.209 202.5 27.995ZM217.633 33.082C224.384 37.255 226.006 43.557 221.635 48.638C219.605 50.998 218.349 51.447 212.791 51.801C201.857 52.497 196.497 47.961 198.875 40.024C201.222 32.191 210.584 28.726 217.633 33.082ZM205.223 37.557C200.394 40.939 203.662 46.743 210.945 47.719C214.038 48.134 215.531 47.83 217.022 46.48C223.315 40.785 212.399 32.53 205.223 37.557ZM148.011 52.25C150.482 56.303 150.506 58.153 148.126 61.092L146.253 63.406L143.126 60.28C139.655 56.809 139.154 53.592 141.655 50.829C144.05 48.182 145.765 48.566 148.011 52.25ZM273.171 50.655C275.751 52.99 275.45 55.307 272.099 58.894C268.768 62.46 266.517 62.834 265.035 60.066C263.446 57.097 263.772 55.425 266.589 52.077C269.546 48.563 270.606 48.334 273.171 50.655ZM127.961 57.979C131.407 59.823 133.518 70 130.455 70C126.373 70 121.573 61.424 124.011 58.487C125.471 56.728 125.594 56.712 127.961 57.979ZM284.398 59.595C284.734 60.472 284.176 63.059 283.157 65.345C280.959 70.273 268.151 86.211 266.973 85.483C266.522 85.205 265.866 83.665 265.514 82.062C264.768 78.666 266.561 74.667 270.467 71.017C271.929 69.651 274.071 66.951 275.227 65.017C278.332 59.824 280.105 58 282.048 58C283.004 58 284.061 58.718 284.398 59.595ZM160.429 63.571C163.459 66.602 161.228 70.454 156.805 69.827C154.156 69.451 153.135 65.747 155.046 63.445C156.603 61.569 158.47 61.613 160.429 63.571ZM256.064 64.577C257.928 66.824 254.512 73.224 251.677 72.796C248.562 72.326 247.759 68.576 250.128 65.564C252.444 62.62 254.198 62.328 256.064 64.577ZM339.275 69.155C341.248 71.809 341.248 71.811 338.896 78.655C335.99 87.113 330.909 94.53 316.349 111.57C304.686 125.22 303.113 126.251 299.886 122.363C298.951 121.235 299.183 120.434 301.011 118.488C302.279 117.138 304.119 115.78 305.099 115.468C306.08 115.157 308.659 112.089 310.831 108.65C313.003 105.211 317.673 99.244 321.21 95.391C324.746 91.538 329.092 86.273 330.869 83.691L334.099 78.996L331.549 75.654C328.578 71.758 328.278 68.53 330.75 67.056C333.538 65.395 337.14 66.281 339.275 69.155ZM210 74C210 78 209.571 81 209 81C208.429 81 208 78 208 74C208 70 208.429 67 209 67C209.571 67 210 70 210 74ZM76 72.5C77.346 74.121 76.469 75.82 72.619 79.052C70.787 80.59 70.8 80.725 73.119 84.218C74.428 86.191 79.108 91.787 83.519 96.653C90.677 104.551 99.293 115.217 105.75 124.175C106.987 125.891 108 128.129 108 129.148C108 133.902 103.737 130.126 85.77 109.457C74.174 96.118 69.306 89.481 67.911 85.113C67.277 83.126 66.363 81.073 65.879 80.55C64.521 79.083 64.836 75.679 66.557 73.223C68.398 70.594 74.059 70.161 76 72.5ZM95.213 83.75C109.963 99.028 122 114.165 122 117.434C122 119.885 116.932 115.76 102.731 101.75C84.857 84.117 82.485 81.197 83.484 78.049C84.639 74.411 87.575 75.838 95.213 83.75ZM322.673 77.591C323.009 78.466 322.601 80.613 321.767 82.363C320.157 85.738 298.624 108.707 293.948 112.037C291.053 114.098 288 113.77 288 111.398C288 110.635 292.293 105.17 297.541 99.255C302.788 93.34 309.573 85.688 312.619 82.25C318.156 75.999 321.473 74.462 322.673 77.591ZM176.332 84.132L179.5 84.263L176 84.931C172.084 85.678 170 85.28 170 83.786C170 83.236 170.712 83.059 171.582 83.393C172.452 83.727 174.589 84.059 176.332 84.132ZM184 84C184 84.55 183.073 85 181.941 85C180.809 85 180.16 84.55 180.5 84C180.84 83.45 181.766 83 182.559 83C183.352 83 184 83.45 184 84ZM222.235 86.396C222.639 87.003 222.976 87.838 222.985 88.25C223.006 89.295 219.237 89.193 218.581 88.13C218.282 87.647 216.144 87.628 213.772 88.087C211.422 88.541 207.137 88.932 204.25 88.956C199.728 88.994 199 88.734 199 87.083C199 86.029 199.563 84.933 200.25 84.647C202.448 83.735 221.47 85.248 222.235 86.396ZM152.5 86C152.873 86.604 151.51 87 149.059 87C146.827 87 145 86.55 145 86C145 85.45 146.548 85 148.441 85C150.334 85 152.16 85.45 152.5 86ZM370.762 88.25C372.139 89.959 370.715 93.315 367.637 95.612C366.246 96.65 361.596 99.42 357.304 101.768C353.012 104.115 343.425 110.773 336 116.563C309.063 137.571 311.954 135.658 310.387 133.514C309.624 132.471 309 131.291 309 130.891C309 130.491 314.962 124.093 322.25 116.673C338.351 100.28 351.024 90.326 358.764 87.996C362.996 86.721 369.644 86.862 370.762 88.25ZM47.3 89.654C53.411 92.812 70.539 106.379 77.631 113.679C88.58 124.947 98.459 140.208 96.24 142.426C95.923 142.744 92.702 140.176 89.082 136.721C81.09 129.093 60.116 112.719 46.5 103.479C41 99.747 36.169 96.2 35.765 95.597C34.636 93.91 34.865 90.535 36.2 89.2C37.913 87.487 43.554 87.718 47.3 89.654ZM174.278 94.955C174.709 96.604 174.129 97.008 170.561 97.543C165.922 98.239 154.048 97.65 149.821 96.514C147.351 95.85 147.11 96.055 146.731 99.147C146.35 102.258 146.309 102.201 146.16 98.355L146 94.211L149.75 95.081C156.107 96.558 169.734 96.213 171.211 94.538C172.963 92.551 173.675 92.648 174.278 94.955ZM230.25 94.897C232.412 95.725 233 96.598 233 98.975C233 102.641 232.768 102.677 229.591 99.5C227.163 97.072 226.692 97.001 213.295 97.024C205.708 97.037 197.7 97.471 195.5 97.989C192.784 98.628 189.414 98.54 185 97.715L178.5 96.5L185 95.856C188.575 95.501 193.075 94.727 195 94.136C199.293 92.816 226.342 93.4 230.25 94.897ZM143 98.406C143 99.338 141.29 100.047 137.936 100.509C132.441 101.265 131.436 100.911 132.345 98.543C133.151 96.443 143 96.317 143 98.406ZM209.554 103.087C209.923 103.685 209.775 104.625 209.223 105.177C208.003 106.397 192 107.893 192 106.787C192 106.354 192.9 105.1 194 104C195.586 102.414 197.333 102 202.441 102C206 102 209.183 102.486 209.554 103.087ZM188.78 107.44C190.16 108.895 190.654 110.096 190.03 110.481C188.775 111.257 188.674 116.501 189.87 118.816C190.373 119.788 190.295 125.309 189.687 131.871L188.633 143.243L182.067 142.709C176.412 142.249 166.019 138.756 161.347 135.745C160.534 135.221 160.32 130.955 160.62 121.251C160.971 109.908 161.337 107.281 162.714 106.25C163.817 105.423 168.126 105.006 175.441 105.017C185.811 105.033 186.642 105.184 188.78 107.44ZM148.6 123.825C149.205 132.996 150.017 141.226 150.405 142.114C150.946 143.353 150.38 143.874 147.973 144.355C145.089 144.932 144.89 145.224 145.498 147.991C146.148 150.951 146.092 151 142.099 151C138.602 151 137.951 150.653 137.411 148.502C136.438 144.625 137.551 143.142 142.337 141.937L146.756 140.824L146.248 123.162C145.957 113.02 146.116 105.851 146.621 106.325C147.104 106.778 147.995 114.653 148.6 123.825ZM273.846 107.922C278.511 110.302 301.162 130.16 306.245 136.326C312.388 143.778 314.431 147.776 312.986 149.517C312.309 150.333 311.462 151 311.103 151C310.745 151 308.555 148.412 306.238 145.25C297.462 133.275 284.091 120.804 270.73 112.133C267.028 109.73 264 107.368 264 106.883C264 105.315 269.972 105.945 273.846 107.922ZM166.633 114.087C166.285 115.827 166 120.144 166 123.681C166 129.607 166.245 130.337 169.121 132.963C170.837 134.531 174.44 137.01 177.127 138.473C181.698 140.96 182.06 141.015 182.756 139.316C183.165 138.317 183.5 131.65 183.5 124.5V111.5L175.383 111.212L167.265 110.923L166.633 114.087ZM207.723 111.85C209.726 112.436 209.822 112.746 208.697 115C207.591 117.217 206.728 117.534 201.076 117.802C194.067 118.133 191.863 117.075 194.058 114.431C196.618 111.346 202.32 110.269 207.723 111.85ZM374.383 116.556C375.449 119.334 372.298 124.775 367.958 127.646C364.211 130.126 362.559 130.493 352.629 131.049C339.733 131.772 333.918 134.073 325.716 141.697C323.085 144.143 320.385 145.962 319.716 145.74C319.047 145.518 318.056 144.079 317.513 142.543C316.607 139.98 316.896 139.42 321.002 135.777C329.881 127.897 341.625 122.727 354.815 120.893C358.982 120.313 364.441 118.771 366.946 117.466C372.367 114.641 373.591 114.491 374.383 116.556ZM132 120.587C132 121.46 127.884 126.072 122.853 130.837C109.731 143.265 101.64 153.712 96.041 165.455C90.628 176.81 88.556 183.149 85.567 197.5C83.724 206.346 83.225 207.537 81.242 207.82C78.533 208.206 78.547 208.857 80.973 195.425C86.364 165.568 100.395 142.154 123.189 124.978C127.553 121.69 131.32 119 131.562 119C131.803 119 132 119.714 132 120.587ZM65.259 127.394C79.565 135.547 92 145.862 92 149.577C92 152.041 89.608 151.156 82.239 145.964C74.195 140.297 56.019 132 51.648 132C45.034 132 38 138.797 38 145.189C38 149.39 42.289 156.327 46.84 159.487C50.543 162.058 52.093 162.498 57.409 162.484C65 162.464 68.342 160.559 70.041 155.285C71.572 150.534 72.906 148.821 74.363 149.736C74.988 150.129 76.175 150.351 77 150.23C77.825 150.109 80.3 151.05 82.5 152.321C85.656 154.143 86.442 155.145 86.226 157.065C85.883 160.105 81.711 168.677 80.904 168C80.576 167.725 79.553 168.126 78.631 168.891C77.157 170.115 77.036 170.07 77.629 168.525C78.192 167.057 77.99 166.929 76.402 167.751C75.356 168.292 71.46 169.296 67.744 169.982C51.478 172.984 37.111 166.875 31.351 154.507C27.3 145.808 28.592 136.722 34.788 130.338C40.013 124.954 44.369 123.05 51.524 123.023C56.828 123.003 58.471 123.526 65.259 127.394ZM212.5 124C212.84 124.55 212.202 125 211.082 125C209.962 125 208.309 126.125 207.408 127.5C205.999 129.651 205.023 130 200.42 130C196.027 130 194.872 129.628 193.958 127.922C191.766 123.825 193.266 123 202.91 123C207.844 123 212.16 123.45 212.5 124ZM212.453 135.905C214.123 136.558 213.941 136.762 211.203 137.309C209.412 137.668 208 138.573 208 139.364C208 141.186 201.954 142.337 196.881 141.48C192.613 140.759 191.511 137.966 194.75 136.08C196.774 134.901 209.565 134.775 212.453 135.905ZM279.638 141.5C280.334 143.313 282.968 143.504 283.079 141.75C283.138 140.81 283.288 140.824 283.682 141.808C284.303 143.361 281.264 147 279.345 147C278.605 147 278 147.45 278 148C278 148.55 278.45 149 279 149C280.331 149 280.283 151.707 278.937 152.539C278.352 152.9 276.978 152.385 275.883 151.395C274.257 149.923 274.015 148.853 274.562 145.547C274.93 143.321 275.43 141.162 275.674 140.75C276.445 139.447 279.039 139.938 279.638 141.5ZM61.087 142.282C63.664 144.261 64.837 147.306 63.938 149.685C61.465 156.229 52 153.621 52 146.395C52 141.62 57.174 139.278 61.087 142.282ZM214.893 147.266C237.081 146.825 244.139 146.966 243.599 147.84C243.098 148.651 237.436 149 224.801 149C208.754 149 206.571 149.197 205.392 150.75C204.661 151.713 204.049 153.235 204.032 154.133C203.991 156.209 201.589 156.847 190.804 157.647L182.108 158.292L181.419 153.102C180.84 148.736 180.276 147.677 177.865 146.43C173.584 144.217 174.383 144.098 180.236 146.08C184.951 147.676 188.397 147.794 214.893 147.266ZM393.506 165.501C393.511 181.951 393.33 184 391.878 184C389.721 184 388.646 182.509 386.471 176.5C383.905 169.411 382.314 167.843 378.051 168.201L374.5 168.5L374.223 183.311L373.946 198.123L377.456 201.23L380.966 204.338L377.483 206.705L374 209.072V229.939V250.806L377.75 253.829C380.422 255.982 381.069 256.972 380 257.273C371.176 259.754 355.693 263.027 355.185 262.519C354.829 262.162 355.374 260.437 356.395 258.685C358.398 255.251 359.835 241.328 359.942 224.318C360 215.168 359.989 215.129 356.904 212.932L353.809 210.728L356.654 208.461L359.5 206.194L359.773 190.347C359.924 181.557 359.624 173.861 359.1 173.066C358.31 171.868 357.497 172.067 354.169 174.269C351.194 176.238 349.209 178.867 346.342 184.633C341.93 193.505 339.314 195.575 340.336 189.384C340.689 187.248 340.983 180.491 340.989 174.368L341 163.236L350.75 161.501C356.113 160.547 366.314 158.271 373.42 156.444C384.089 153.7 386.874 152.587 389.401 150.06C391.084 148.377 392.695 147 392.981 147.001C393.266 147.001 393.503 155.326 393.506 165.501ZM146.802 161.013C146.399 167.695 144.578 167.861 144.198 161.25C143.951 156.972 144.193 156 145.5 156C146.8 156 147.047 156.953 146.802 161.013ZM116.5 160C116.5 162.741 114.273 163.876 113.394 161.583C112.566 159.426 113.717 156.739 115.251 157.25C115.938 157.479 116.5 158.717 116.5 160ZM207.796 164.955C206.417 167.164 205.445 166.889 206.345 164.543C206.671 163.694 207.405 163 207.977 163C208.635 163 208.569 163.717 207.796 164.955ZM158.395 173.414C157.347 176.144 156.325 175.145 156.807 171.863C157.16 169.454 157.469 169.086 158.135 170.277C158.613 171.13 158.729 172.542 158.395 173.414ZM149.171 171.655C151.829 174.06 151.441 174.65 147.5 174.19C144.274 173.813 143.046 172.287 144.667 170.667C145.758 169.575 147.23 169.898 149.171 171.655ZM325.685 171.067C333.024 173.847 335.893 179.193 337.121 192.372C338.357 205.648 339.214 208.468 342.969 211.628L346.103 214.264L342.718 217.382C339.367 220.469 339.322 220.627 338.157 233.396C335.696 260.341 330.724 270.037 317.887 272.913C311.589 274.325 306.404 272.727 301.874 267.978C296.588 262.436 294.889 256.608 294.304 242C293.863 230.997 293.515 229.053 291.401 225.771C288.456 221.198 288.456 221.2 291.356 218.055C293.316 215.929 293.896 213.729 294.815 204.945C296.219 191.519 298.962 184.297 305.283 177.381C311.533 170.542 318.561 168.367 325.685 171.067ZM119.679 176.748C120.862 179.649 120.803 180.197 119.118 181.882C117.025 183.975 112.847 183.726 110.91 181.392C110.011 180.308 110.352 179.227 112.473 176.447C115.697 172.219 117.868 172.31 119.679 176.748ZM79 175.351C79 176.094 78.527 178.059 77.949 179.718C77.008 182.415 76.348 182.8 71.699 183.358C68.839 183.702 59 183.987 49.833 183.991C32.518 184 31.728 183.803 32.782 179.739C33.386 177.413 34.737 177.21 53.5 176.627C62.3 176.353 70.625 175.679 72 175.128C75.622 173.677 79 173.785 79 175.351ZM149.789 188.506C149.446 198.589 147.634 200.354 147.197 191.031C146.86 183.858 147.511 180 149.058 180C149.694 180 149.969 183.203 149.789 188.506ZM313.164 186.25C311.101 189.603 309.624 196.554 308.499 208.197C307.921 214.186 308.071 215.081 309.926 216.669C312.512 218.883 312.526 220.062 310 223.273C305.227 229.341 309.414 257.686 315.249 258.809C317.578 259.258 321.778 252.475 322.883 246.477C323.387 243.739 324.109 237.45 324.486 232.5L325.172 223.5L322.086 222.337C318.092 220.831 318.06 217.969 322 214.653C324.647 212.426 324.998 211.504 324.98 206.815C324.951 198.878 323.146 187.872 321.45 185.284C319.229 181.893 315.582 182.319 313.164 186.25ZM279.016 185.853C280.932 186.873 283.85 189.611 285.5 191.939C288.453 196.104 288.5 196.37 288.5 208.835C288.5 221.474 288.493 221.513 284.943 227.941C280.996 235.086 275.305 239.744 266.854 242.745C263.53 243.926 261.782 245.155 261.512 246.5C260.641 250.85 260.323 275.64 261.111 277.771C261.572 279.018 263.564 280.991 265.538 282.155C267.718 283.441 268.767 284.633 268.209 285.191C267.704 285.696 263.513 287.169 258.895 288.464C254.278 289.759 248.599 291.51 246.276 292.356C243.953 293.201 241.835 293.542 241.57 293.114C241.305 292.685 242.306 290.571 243.794 288.417L246.5 284.5L246.545 263.629L246.591 242.758L242.795 240.246C240.708 238.864 239 237.415 239 237.025C239 236.634 240.595 235.457 242.543 234.407C244.492 233.358 246.326 231.549 246.618 230.386C246.909 229.224 247.002 221.537 246.824 213.305C246.507 198.669 246.438 198.255 243.692 194.659C240.544 190.536 240.199 190.834 250.253 189.008C253.967 188.334 259.592 186.955 262.753 185.945C270.164 183.576 274.686 183.55 279.016 185.853ZM237.118 189.25C237.184 189.938 237.115 190.95 236.967 191.5C236.818 192.05 236.423 198.426 236.089 205.668C235.498 218.492 235.402 218.936 232.391 222.668C228.418 227.592 225.103 228.094 221.562 224.307C218.351 220.873 217.328 217.306 218.854 214.863C222.344 209.274 216.393 203.725 209.39 206.036C204.573 207.626 201.613 212.87 202.265 218.659C202.933 224.585 207.048 228.815 219.163 236.028C236 246.052 241 253.137 241 266.968C241 278.576 237.163 289.493 230.486 296.883C225.641 302.247 214.578 307.154 205.939 307.772C196.981 308.413 195.137 307.834 190.17 302.817C183.569 296.15 181.724 291.405 182.146 282.186C182.466 275.174 182.84 273.961 186.065 269.467C188.026 266.735 191.13 263.488 192.963 262.25C201.978 256.164 215.051 263.128 213.688 273.29C212.942 278.849 208 282.701 208 277.723C208 274.544 205.281 271 202.843 271C201.719 271 199.27 272.53 197.4 274.4C194.572 277.228 194.001 278.532 194.007 282.15C194.019 290.046 198.806 294.92 206.6 294.968C213.139 295.009 218.932 291.126 221.351 285.082C223.212 280.429 223.499 271.338 221.96 265.794C220.56 260.753 213.67 254.125 205.209 249.679C195.113 244.374 188.568 238.134 186.056 231.42C183.299 224.051 183.462 220.641 186.92 213.331C193.563 199.29 207.888 191.469 220.498 194.999L224.996 196.259L229.475 192.129C233.953 188.002 236.895 186.894 237.118 189.25ZM107.82 191.828C108.032 193.271 107.612 194 106.57 194C105.549 194 105 193.097 105 191.417C105 188.284 107.348 188.627 107.82 191.828ZM75 191.566C75 196.07 73.574 196.668 61.145 197.37C46.872 198.177 39.731 196.867 40.209 193.532C40.574 190.98 44.633 190.358 62.25 190.15C73.219 190.021 75 190.219 75 191.566ZM263 196.977C260.892 198.307 260.128 231 262.205 231C264.496 231 271.18 224.814 272.624 221.357C274.247 217.472 274.421 207.056 272.951 201.762C271.536 196.668 266.97 194.472 263 196.977ZM170.353 212.25C169.932 212.938 168.107 215.446 166.296 217.824C162.385 222.961 148.055 251.958 147.814 255.223C147.721 256.475 151.268 264.925 155.695 274C160.122 283.075 164.313 292.3 165.007 294.5C167.22 301.505 169.812 305.683 174.008 309.007C176.254 310.786 177.946 312.387 177.767 312.566C177.589 312.745 174.305 313.375 170.471 313.966C166.637 314.557 160.415 315.959 156.644 317.081C152.874 318.203 149.562 318.895 149.285 318.618C149.008 318.342 149.731 316.782 150.891 315.153C152.051 313.524 153 311.209 153 310.008C153 308.807 150.909 302.576 148.354 296.162C145.799 289.748 142.963 282.036 142.052 279.025L140.396 273.551L137.948 278.525C135.66 283.175 135.509 284.469 135.636 298.335L135.772 313.169L139.084 316.587C141.068 318.633 142.016 320.339 141.448 320.839C140.927 321.299 136 322.835 130.5 324.253C125 325.671 119.712 327.143 118.75 327.523C116.365 328.465 116.46 325.979 119 321C120.759 317.552 120.999 315.117 120.991 300.79C120.98 279.199 120.376 274.332 117.621 273.609C116.199 273.236 114.719 273.832 113.132 275.417C110.771 277.775 110.764 277.845 110.632 303.854L110.5 329.927L105.812 331.464C99.083 333.669 98 333.489 98 330.168C98 325.96 90.732 306.137 84.256 292.685C79.195 282.169 78.425 281.066 77.263 282.656C76.233 284.064 76.088 289.312 76.581 307.471L77.206 330.5L79.832 332.721C83.232 335.595 82.304 336.366 73 338.401C68.875 339.303 64.487 340.309 63.25 340.637C60.27 341.427 60.249 338.935 63.201 334.942C65.312 332.087 65.403 331.046 65.451 309.316C65.485 293.591 65.161 286.554 64.392 286.297C63.782 286.094 62.453 285.321 61.438 284.578C59.687 283.298 59.764 283.033 62.943 279.412L66.294 275.595L65.688 260.827C65.061 245.539 63.815 240.634 60.21 239.25C58.711 238.675 72.827 235.137 78.5 234.666C81.205 234.441 84.213 240.801 91.468 262.079C94.637 271.372 97.628 278.73 98.115 278.429C98.602 278.128 99 268.639 99 257.342V236.802L95.901 233.908C93.725 231.875 93.204 230.867 94.151 230.522C98.643 228.886 113.336 225.003 113.691 225.358C113.925 225.592 113.416 227.462 112.559 229.514C111.339 232.432 111.003 237.191 111.015 251.372C111.024 261.342 111.461 270.175 111.987 271C112.78 272.244 113.587 271.857 116.722 268.727L120.5 264.953L120.421 247.473C120.346 230.967 120.221 229.864 118.171 227.682C115.314 224.641 115.431 224 118.84 224C120.402 224 125.201 223.099 129.505 221.999C133.809 220.898 137.559 220.226 137.839 220.506C138.119 220.785 137.357 222.997 136.147 225.42C134.125 229.469 133.969 231.053 134.223 245.016L134.5 260.207L141.317 244.854C145.066 236.409 148.83 228.218 149.682 226.651C151.131 223.983 151.09 223.613 149.027 220.823C147.815 219.184 146.976 217.704 147.162 217.535C147.348 217.365 150.875 216.305 155 215.179C159.125 214.053 163.625 212.681 165 212.129C168.632 210.673 171.282 210.733 170.353 212.25ZM332.5 217C332.16 217.55 332.359 218 332.941 218C333.523 218 334 217.55 334 217C334 216.45 333.802 216 333.559 216C333.316 216 332.84 216.45 332.5 217ZM301 223C301 224.111 301.667 225 302.5 225C303.333 225 304 224.111 304 223C304 221.889 303.333 221 302.5 221C301.667 221 301 221.889 301 223ZM57.349 236.532C57.04 237.339 56.439 238 56.014 238C53.661 238 52.885 244.575 53.185 261.993C53.49 279.658 53.574 280.309 55.75 281.752C58.698 283.707 58.603 285.768 55.5 287.182L53 288.321V313.084V337.847L55.5 340.818C56.875 342.452 58 344.208 58 344.721C58 345.234 54.513 346.191 50.25 346.847C45.987 347.503 39.621 348.939 36.102 350.038C32.583 351.138 29.463 351.796 29.169 351.502C28.875 351.208 29.613 349.737 30.81 348.234C36.297 341.343 36.346 341.07 36.765 315.5L37.158 291.5L33.579 289.241C31.61 287.998 30 286.619 30 286.176C30 285.733 31.575 284.619 33.5 283.701L37 282.032V266.484C37 250.028 36.229 246.24 32.138 242.595C28.322 239.195 29.385 238.002 36.25 237.977C39.688 237.965 45.65 237.131 49.5 236.124C56.997 234.164 58.233 234.228 57.349 236.532ZM401.701 246.96C410.065 252.059 409.528 263.056 400.689 267.68C398.935 268.597 386.925 272.213 374 275.714C361.075 279.215 343.975 283.856 336 286.028C328.025 288.2 312.725 292.213 302 294.946C291.275 297.68 265.85 304.899 245.5 310.989C202.874 323.746 201.103 324.229 186.894 326.97C181.06 328.096 171.61 330.316 165.894 331.903C160.177 333.491 153.133 335.283 150.24 335.886C147.347 336.49 142.397 338.067 139.24 339.391C124.301 345.658 50.11 364.857 37.387 365.747C33.294 366.034 28.799 365.759 26.802 365.1C20.527 363.029 15.561 355.686 17.948 352.009C18.749 350.776 19.497 351.151 22.269 354.178C26.371 358.657 30.36 359.563 39.068 357.997C46.753 356.615 86.368 347.032 111.5 340.476C121.4 337.894 132.875 334.992 137 334.028C141.125 333.063 150.35 330.474 157.5 328.273C171.896 323.842 178.942 321.932 202.5 316.077C211.3 313.89 226.825 309.364 237 306.02C259.371 298.668 287.055 290.532 308 285.156C327.327 280.194 339.395 276.83 353.5 272.471C359.55 270.602 368.371 268.175 373.103 267.079C377.835 265.983 384.113 264.138 387.053 262.979C389.994 261.82 393.306 261.108 394.413 261.398C396.95 262.061 400 259.387 400 256.5C400 252.815 396.82 250.838 391.459 251.189C386.035 251.544 385.048 250.399 388.024 247.205C390.68 244.354 397.235 244.236 401.701 246.96ZM384.434 286.894C385.162 288.072 382.246 295 381.022 295C379.693 295 377.778 291.168 378.513 289.979C378.846 289.441 378.529 288.986 377.809 288.968C375.818 288.92 380.071 286 382.132 286C383.095 286 384.131 286.402 384.434 286.894ZM367 298.449C372.66 300.453 375.543 300.954 378.75 300.491C381.087 300.154 383 300.16 383 300.504C383 302.653 380.457 305.057 377.238 305.951C371.532 307.536 368.055 307.219 361.5 304.519C355.058 301.865 347.857 301.31 341.993 303.016C340.072 303.575 337.201 304.267 335.612 304.555C334.024 304.842 331.956 305.488 331.017 305.991C330.078 306.494 328.06 307.131 326.532 307.408C325.004 307.685 323.472 308.229 323.127 308.615C322.782 309.002 323.265 309.045 324.199 308.71C325.38 308.287 325.736 308.525 325.366 309.488C325.074 310.25 324.269 310.657 323.577 310.391C322.886 310.126 321.787 310.552 321.135 311.338C320.198 312.466 320.285 312.895 321.547 313.38C322.426 313.717 323.9 313.602 324.822 313.124C325.745 312.646 328.525 312.345 331 312.457C333.475 312.568 336.063 312.231 336.75 311.707C337.618 311.046 338 311.215 338 312.263C338 313.092 339.125 314.507 340.5 315.408C341.875 316.309 343 316.586 343 316.023C343 315.46 342.55 315 342 315C341.45 315 341 314.495 341 313.878C341 312.077 343.987 314.982 344.079 316.872C344.129 317.909 344.341 318.046 344.662 317.25C344.94 316.563 345.767 316 346.5 316C347.233 316 348.037 315.438 348.287 314.75C348.536 314.063 348.633 315.055 348.502 316.956C348.368 318.887 347.653 320.576 346.882 320.782C345.858 321.056 345.889 320.877 347 320.091C348.294 319.176 348.26 319.029 346.75 319.015C345.788 319.007 344.993 319.563 344.985 320.25C344.974 321.083 344.646 321 344 320C343.354 319 343.026 318.917 343.015 319.75C343.005 320.555 341.462 321 338.684 321C332.343 321 323.259 322.874 317 325.474C309.052 328.776 307 329.303 307 328.046C307 326.669 316.906 314 317.983 314C318.897 314 320.387 309.249 320.179 307C319.908 304.076 322.613 302.296 332 299.223C337.225 297.512 342.175 295.868 343 295.569C346.503 294.301 359.785 295.894 367 298.449ZM313.99 303.25C313.95 308.35 302.321 324.795 291.714 334.75C286.674 339.48 282 341.55 282 339.052C282 338.53 286.163 333.9 291.25 328.762C297.927 322.02 301.855 316.998 305.371 310.711C308.798 304.581 310.799 302 312.121 302C313.154 302 313.996 302.563 313.99 303.25ZM371.085 315.451C375.264 322.737 374.971 326.082 369.689 331.363C365.127 335.926 359.774 337.887 357.357 335.881C355.258 334.139 355.705 333.106 359.537 330.846C361.482 329.698 363.767 327.417 364.616 325.776C366.155 322.799 366.692 314.591 365.637 310.161C365.155 308.136 365.289 307.995 366.635 309.112C367.49 309.821 369.492 312.674 371.085 315.451ZM282.408 317.552C280.715 321.121 280.717 321.32 282.476 322.606C284.169 323.844 284.179 323.994 282.61 324.596C280.342 325.466 280.061 325.045 279.58 320.047C279.236 316.475 279.484 315.686 281.084 315.268C282.138 314.992 283 314.294 283 313.717C283 313.139 283.263 312.93 283.585 313.252C283.907 313.574 283.378 315.509 282.408 317.552ZM341.191 333.141C350.489 336.193 354.111 338.312 358.885 343.491C365.301 350.451 368.394 357.896 367.693 364.689C366.826 373.088 361.23 379.439 353.606 380.677C348.715 381.47 348.77 379.135 353.718 375.918C358.249 372.971 362.002 367.614 361.994 364.102C361.974 354.445 355.846 347.132 343.5 342.032C332.658 337.553 322.401 336.918 308.767 339.883C303.415 341.047 297.607 342 295.862 342C292.7 342 292.696 341.993 294.595 339.892C302.463 331.185 325.198 327.891 341.191 333.141ZM233.434 332.975C236.881 334.285 239.992 339.646 239.996 344.282C240.007 354.672 232.426 360.946 225.414 356.352C217.995 351.49 218.438 338.752 226.19 334.026C230.019 331.691 230.047 331.687 233.434 332.975ZM261.476 334.385C266.691 339.6 266.646 348.702 261.373 354.969C257.847 359.158 253.861 359.061 249.479 354.679C243.64 348.84 243.847 341.587 250.04 334.957C253.542 331.208 258.072 330.982 261.476 334.385ZM216 336.934C216 339.39 215.553 339.919 213.25 340.184C210.507 340.499 210.499 340.524 210.21 349.314C209.933 357.73 209.821 358.114 207.739 357.814C205.66 357.515 205.572 357.09 205.864 348.75L206.17 340H202.478C199.522 340 198.907 339.685 199.393 338.418C199.727 337.548 200 336.445 200 335.966C200 335.487 202.813 334.936 206.25 334.74C209.688 334.545 213.287 334.299 214.25 334.193C215.563 334.048 216 334.733 216 336.934ZM196 338.147C196 340.486 195.571 341 193.618 341C191.354 341 191.202 341.414 190.536 349.405C189.944 356.516 189.541 357.887 187.918 358.311C186.133 358.778 186 358.194 186 349.906V341H183C180.524 341 180 340.593 180 338.667C180 337.383 180.188 336.146 180.418 335.917C180.649 335.688 184.249 335.454 188.418 335.397L196 335.295V338.147ZM174.795 347.75C176.596 353.663 178.053 359.063 178.034 359.75C177.969 362.135 174.238 361.086 173.589 358.5C172.494 354.137 166 355.461 166 360.048C166 363.274 164.927 364.293 162.51 363.365C161.369 362.927 161.03 362.055 161.443 360.612C161.775 359.45 163.223 354 164.662 348.5C168.644 333.27 170.347 333.144 174.795 347.75ZM227.174 339.314C222.996 343.762 224.832 352 230 352C233.543 352 235 349.709 235 344.137C235 340.153 233.058 337 230.603 337C229.913 337 228.37 338.042 227.174 339.314ZM252 340C248.856 343.144 249.906 349.809 253.88 351.936C256.467 353.32 258.463 352.474 259.865 349.398C263.536 341.341 257.669 334.331 252 340ZM159.497 341.991C160.355 344.694 159.36 346 156.441 346C154.044 346 154 346.155 154 354.5C154 362.9 153.971 363 151.5 363C149.029 363 149 362.9 149 354.5V346H145.93C143.319 346 142.909 345.664 143.18 343.75C143.46 341.781 144.249 341.427 149.5 340.918C152.8 340.598 156.257 340.261 157.183 340.168C158.108 340.076 159.15 340.896 159.497 341.991ZM324.415 344.809C327.669 346.246 332.592 349.352 335.355 351.711C338.119 354.07 341.365 356 342.568 356C345.431 356 347.331 358.38 346.517 360.946C344.548 367.151 338.013 367.813 332.037 362.414C329.853 360.442 327.545 357.404 326.906 355.664C326.121 353.523 323.524 350.959 318.873 347.733C315.093 345.111 312 342.488 312 341.904C312 340.415 317.247 341.642 324.415 344.809ZM296.756 347.057C304.449 348.781 308.876 351.833 320.334 363.313C328.171 371.165 333.065 375.222 336.75 376.921C342.238 379.451 343.406 381.399 339.976 382.296C333.963 383.868 323.259 377.443 312.939 366.066C307.247 359.792 303.445 356.69 296.75 352.858C291.938 350.103 288 347.509 288 347.092C288 345.697 289.381 344.932 290.868 345.503C291.678 345.814 294.327 346.513 296.756 347.057ZM168.63 349.25C167.744 352.559 167.846 353 169.5 353C170.5 353 171 352 171 350C171 346.482 169.499 346.007 168.63 349.25ZM129.5 356.388C129.5 357.565 125.855 361.055 119.592 365.875C108.524 374.392 105.113 379.023 107.378 382.456C108.12 383.58 109.869 384.638 111.264 384.807C114.641 385.215 120.653 379.918 121.887 375.446C123.659 369.03 129.904 362.504 132.136 364.736C132.698 365.298 132.255 366.677 131.002 368.27C128.115 371.941 126 377.375 126 381.123C126 387.586 117.205 394.863 111.032 393.507C106.882 392.595 103.305 388.846 102.014 384.053C100.55 378.617 102.803 370.433 107.114 365.523C110.359 361.827 125.306 353.72 127.939 354.227C128.798 354.392 129.5 355.365 129.5 356.388ZM290.425 358.198C303.507 363.274 310.855 375.155 307.684 386.105C306.086 391.626 301.033 395.45 296.525 394.552C288.799 393.014 279.747 382.299 279.584 374.5C279.508 370.882 279.755 370.47 282.177 370.191C284.519 369.92 285.12 370.482 286.981 374.691C289.636 380.697 293.412 384.712 297.182 385.54C300.866 386.349 303 384.629 303 380.851C303 375.554 292.009 366.5 284.077 365.263C280.516 364.708 278.021 363.142 278.454 361.735C278.662 361.056 279.106 359.256 279.439 357.737C280.125 354.609 281.305 354.659 290.425 358.198ZM102 359.901C102 361.856 91.146 373.513 85.034 378.123C78.008 383.423 75.634 384.054 74.027 381.05C73.145 379.403 73.547 378.662 76.601 376.3C78.591 374.76 83.432 370.915 87.358 367.755C96.192 360.645 102 357.53 102 359.901ZM265.615 370.051C270.7 371.077 273.58 373.231 275.91 377.75C277.388 380.616 276.502 380.577 269.731 377.477C263.271 374.52 250.055 372.647 239.36 373.175C235.005 373.389 231.802 373.122 231.495 372.518C231.211 371.958 231.166 372.512 231.395 373.75C231.63 375.013 231.305 376.021 230.656 376.048C230.02 376.074 232.549 377.631 236.276 379.508C240.003 381.385 245.951 384.513 249.495 386.46C256.9 390.53 258 390.736 258 388.059C258 386.991 258.441 385.846 258.979 385.513C261.32 384.066 267.934 389.787 267.978 393.295C267.99 394.283 266.841 396.249 265.425 397.666C259.937 403.154 248.719 399.092 227.903 384.08C221.082 379.16 215.342 375.577 215.15 376.118C214.957 376.658 217.266 380.34 220.28 384.3C231.145 398.576 233.283 407.431 225.041 404.017C222.934 403.144 221.526 401.25 219.583 396.67C218.143 393.277 215.682 388.025 214.114 385C212.547 381.975 210.72 377.813 210.055 375.75C209.117 372.845 208.323 372 206.529 372C203.883 372 203.031 373.617 202.927 378.832C202.882 381.118 200.904 386.456 197.677 393C192.817 402.856 192.301 403.519 189.25 403.813C186.333 404.095 186 403.859 186 401.514C186 398.024 188.152 394.057 195.175 384.604C198.401 380.261 200.827 376.494 200.566 376.232C199.894 375.561 191.578 380.564 185.034 385.576C175.714 392.714 162.67 399.177 157.234 399.35C150.921 399.55 144.984 396.055 145.036 392.168C145.094 387.838 153.515 379.771 163 374.958C170.024 371.394 202.677 368.153 218.381 369.462C226.254 370.117 226.866 370.331 227.442 372.623C227.781 373.976 228.514 374.801 229.07 374.457C229.626 374.113 229.819 373.004 229.498 371.993C228.905 370.126 229.578 369.956 242.5 368.695C246.908 368.265 260.802 369.08 265.615 370.051ZM143.911 371.618C144.136 371.821 143.564 372.824 142.639 373.847C140.469 376.244 131 381.413 131 380.2C131 379.103 136.658 371.835 138.334 370.78C139.373 370.125 142.829 370.645 143.911 371.618ZM181 376C179.075 377.054 176.698 377.935 175.718 377.958C172.83 378.026 158.398 383.899 155.481 386.194C153.375 387.85 153.098 388.476 154.199 389.091C156.663 390.47 163.515 388.188 172.635 382.95C183.069 376.958 190.446 370.829 181 376ZM212.044 397.024C215.551 404.854 215.846 410.655 212.927 414.365C208.794 419.62 203.159 416.589 202.261 408.627C201.886 405.296 202.447 402.373 204.485 397.038C205.985 393.114 207.646 390.049 208.178 390.226C208.709 390.403 210.449 393.462 212.044 397.024Z" fill="black"/>
</svg>
